<svg width="121" height="81" viewBox="0 0 121 81" fill="none" xmlns="http://www.w3.org/2000/svg">
<path d="M37.6314 71.9202C35.4573 72.4284 36.1452 70.4087 36.0427 68.697C36.0609 63.1817 36.0142 53.1034 36.0564 49.6955C36.0826 49.346 36.2033 49.1363 36.5313 49.0167C38.4947 48.7478 40.5526 48.3723 42.1801 47.0705C42.9909 46.6061 43.4453 45.8101 44.3336 45.7497C55.0743 45.7438 76.5978 45.7497 89.4818 45.7497C90.878 45.989 87.6994 46.7222 87.3862 46.7139C83.8102 47.2221 80.2285 48.011 76.6889 48.7052C64.9597 50.8196 63.1603 52.093 54.4753 60.2333C48.7171 66.5944 46.6979 70.3436 37.6485 71.9167L37.6314 71.919L37.6314 71.9202Z" fill="white"/>
<path d="M89.2633 26.0106C89.3817 26.0805 89.4421 26.1244 89.4193 26.1563C89.3567 26.2191 89.2257 26.2085 89.1209 26.2227C77.714 26.1943 48.9873 26.2997 43.5924 26.1836C43.1483 26.0178 42.8089 25.6351 42.3659 25.2679C41.2282 24.2492 40.2772 23.85 38.7477 23.6178C37.9664 23.4591 36.9244 23.4484 36.3846 23.0113C36.1283 22.7543 36.0645 22.3693 36.044 21.9772C36.0247 18.4756 36.0475 9.36636 36.0395 3.66387C36.0338 2.8181 36.0418 1.67618 36.0418 0.959517C36.0486 0.679961 36.0998 0.227458 36.2707 0.116109C36.4256 -0.0580217 37.0235 0.00357555 37.4323 0.0995251C38.1612 0.245226 38.8798 0.428834 39.6178 0.588749C42.0436 1.20828 44.4512 2.14171 46.5592 3.53357C47.7459 4.33197 48.8119 5.28791 49.6581 6.46892C50.5088 7.59307 51.4859 8.59284 52.4574 9.6009C53.561 10.7405 54.6269 11.8978 55.7385 13.0231C56.8398 14.0631 58.0321 14.9966 59.1118 16.0603C59.8395 16.7284 60.6083 17.3444 61.3952 17.9355C62.4623 18.799 63.5534 19.6744 64.8198 20.2276C68.3184 21.7048 72.047 22.5174 75.7586 23.253C77.5557 23.6474 79.3529 24.0514 81.1728 24.3831C82.798 24.691 84.422 24.9386 86.0619 25.2075C87.1484 25.4314 88.2782 25.5581 89.2576 26.0071L89.2633 26.0106Z" fill="white"/>
<path d="M35.7454 47.3659C34.4528 47.6028 32.6568 47.5827 31.2081 47.5744C29.4896 47.5803 27.9783 47.6774 27.5467 45.6115C27.0501 44.1699 26.9522 42.5234 26.951 40.9444C26.9681 39.7977 26.8964 38.6582 28.2425 38.8157C31.199 38.7743 38.3841 38.8856 41.6846 38.7707C43.3131 38.6783 44.8119 36.7107 44.0272 35.076C43.6241 34.1391 42.8587 33.6344 41.8918 33.6297C38.1176 33.529 31.2127 33.6889 27.697 33.5681C26.6994 33.4307 27.0228 31.8161 26.9533 30.9763C26.9841 29.2433 27.1583 27.5126 27.7539 25.9146C28.5272 23.459 33.0577 24.7242 34.9539 24.7751C37.9468 24.9089 39.5583 24.6898 42.0695 26.7427C42.8929 27.3764 43.4498 27.8028 44.5762 27.8798C46.6671 27.9722 49.7307 27.8964 51.6667 27.9225C52.2555 27.9853 53.2076 27.7294 53.3693 28.4958C53.5026 31.8635 53.3693 39.6745 53.4149 43.0339C53.3967 43.458 53.4741 43.9851 53.1985 44.2837C52.3865 44.6781 51.5711 44.4234 50.3251 44.4969C48.3333 44.549 45.6091 44.382 43.7174 44.5905C42.6093 44.7255 41.8634 45.6033 40.9135 46.1387C39.4626 47.1325 37.4229 47.0626 35.7636 47.3647L35.7465 47.3671L35.7454 47.3659Z" fill="white"/>
<path d="M99.7654 44.3333C98.1106 44.543 96.6438 44.9007 96.9695 42.6015C96.9706 39.1058 96.9661 31.4796 96.9695 29.0051C96.9786 28.6343 96.974 28.2327 97.3442 28.0681C101.153 27.4462 105.068 29.3664 108.757 30.2631C112.784 31.1539 111.383 32.1987 111.581 35.7239C111.332 37.5316 112.387 40.6695 110.326 41.3577C106.833 42.4049 103.345 43.5148 99.7848 44.3298L99.7643 44.3333L99.7654 44.3333Z" fill="white"/>
<path d="M42.855 37.1475C42.6933 37.2944 42.5054 37.375 42.2833 37.4271C41.9234 37.5183 41.4565 37.51 40.7891 37.51C36.0366 37.51 29.7364 37.51 25.1229 37.51C24.5295 37.5159 24.1218 37.4982 23.7619 37.4401C23.5171 37.4034 23.2802 37.3122 23.1037 37.1274C22.7745 36.7886 22.6515 36.2046 22.6948 35.7343C22.7438 35.2664 23.0866 34.9727 23.5524 34.9407C27.3562 34.859 38.3064 34.9051 42.2366 34.9217C42.8243 34.9561 43.3129 35.238 43.289 35.9085C43.2787 36.3657 43.166 36.8644 42.863 37.1404L42.855 37.1475Z" fill="white"/>
<path d="M31.984 22.9597C30.1595 22.7939 28.7871 22.5309 29.2404 20.24C29.4033 19.3989 29.5536 18.5141 29.6789 17.6399C29.8201 16.89 29.9773 16.203 30.0536 15.4259C30.2142 14.3231 30.3406 12.9241 31.6195 12.6908C32.1696 12.5699 32.8518 12.532 33.4064 12.5865C33.7241 12.6268 34.0191 12.6754 34.2662 12.8696C34.6011 13.1373 34.6193 13.6609 34.6216 14.4723C34.6216 14.9343 34.6216 15.3904 34.6216 15.8642C34.6181 17.6221 34.6307 19.9178 34.6147 21.5489C34.6193 22.2229 34.4405 22.8839 33.7071 22.9882C33.1456 23.0817 32.5625 23.0249 31.9999 22.9609L31.9828 22.9585L31.984 22.9597Z" fill="white"/>
<path d="M30.9931 58.9657C30.2198 58.3794 30.2039 57.2185 30.057 56.304C29.9898 55.6525 29.8554 55.0591 29.7426 54.4632C29.6925 54.1931 29.6504 53.9124 29.606 53.64C29.4385 52.5584 29.0696 51.5362 29.1311 50.4476C29.196 49.5805 29.9977 49.3495 30.8154 49.2973C31.706 49.2737 32.9793 49.2298 33.8004 49.3684C34.6033 49.481 34.5748 50.2948 34.5817 50.9652C34.5828 52.7314 34.5874 55.7887 34.5817 57.6971C34.576 58.0169 34.5669 58.3604 34.4826 58.6341C34.2206 59.4704 33.0123 59.359 32.0875 59.2986C31.7174 59.2583 31.3131 59.1813 31.0056 58.9752L30.992 58.9657L30.9931 58.9657Z" fill="white"/>
<path d="M113.831 40.4894C112.8 40.4894 112.982 38.8606 112.916 38.0314C112.911 37.002 112.916 35.8577 112.914 34.8082C112.961 33.7468 112.704 31.9392 113.706 31.7426C114.136 31.6916 114.672 31.8764 115.11 32.0186C115.73 32.2377 116.356 32.4604 116.977 32.6914C118.143 33.164 119.358 33.6402 120.256 34.5583C121.274 35.6161 120.951 37.0861 119.861 37.9378C118.894 38.7232 117.655 39.1461 116.518 39.614C115.686 39.9089 114.672 40.4692 113.843 40.4906L113.83 40.4906L113.831 40.4894Z" fill="white"/>
<path d="M31.3791 11.0367C30.4931 10.6209 30.9349 9.19587 31.0557 8.40577C31.1661 7.84784 31.2322 7.22239 31.3472 6.69052C31.4839 6.05678 31.6171 5.42186 31.7026 4.77627C31.7982 4.13542 31.936 3.60237 32.0419 2.97455C32.1456 2.38109 32.2207 1.73313 32.4531 1.18586C32.7469 0.566337 33.3585 -0.209551 34.0828 0.0522368C34.8845 0.415897 34.6032 1.76867 34.6579 2.76844C34.6579 4.34864 34.6579 6.05323 34.6579 7.60619C34.6568 8.48869 34.6613 9.28353 34.6545 9.87463C34.6397 10.2596 34.6488 10.7003 34.3857 10.9917C33.8766 11.5354 32.2048 11.4311 31.3928 11.045L31.3791 11.0379L31.3791 11.0367Z" fill="white"/>
<path d="M32.9629 71.52C32.3411 70.9372 32.1964 70.0168 32.0689 69.1853C31.8946 68.2269 31.7067 67.3255 31.5655 66.3601C31.3582 65.4326 31.2056 64.5039 31.0553 63.555C30.9835 63.1582 30.8754 62.7223 30.8514 62.3373C30.8093 61.6917 31.0485 61.3198 31.6999 61.1835C32.4459 61.0212 33.4936 60.9442 34.1883 61.2676C34.6735 61.5259 34.637 62.1395 34.6541 62.6405C34.6587 63.953 34.6541 66.199 34.6564 68.118C34.6541 69.0395 34.6609 69.8841 34.6518 70.5143C34.645 70.8069 34.6234 71.1291 34.5209 71.3885C34.268 72.0969 33.4583 72.0827 32.9766 71.5319L32.9652 71.52L32.9629 71.52Z" fill="white"/>
<path d="M55.3215 44.4063C54.7065 44.5947 54.6598 43.6814 54.6644 43.1886C54.6644 40.2023 54.6644 32.2065 54.6644 29.219C54.6621 28.9146 54.6815 28.5379 54.7805 28.3034C55.1746 27.4268 55.8716 27.9587 55.9012 28.8092C55.9365 29.6751 55.9069 30.6228 55.916 31.966C55.916 34.7652 55.916 38.7868 55.916 41.4271C55.859 42.3345 56.1563 44.0391 55.3283 44.4028L55.3215 44.4051L55.3215 44.4063Z" fill="white"/>
<path d="M69.5215 37.5529C69.5215 37.8972 69.4763 38.1964 69.3859 38.4504C69.2955 38.7044 69.1685 38.9239 69.0049 39.109C68.8456 39.2898 68.6519 39.4383 68.4238 39.5545C68.1999 39.6664 67.9503 39.7568 67.6748 39.8257C67.4036 39.8903 67.113 39.9355 66.8031 39.9613C66.4931 39.9871 66.1724 40.0001 65.841 40.0001H59.4033V31.1281H65.7247C65.9787 31.1281 66.2327 31.1389 66.4867 31.1604C66.7449 31.1819 66.9903 31.2228 67.2228 31.2831C67.4552 31.339 67.6705 31.4187 67.8685 31.522C68.0708 31.6253 68.2451 31.7609 68.3915 31.9288C68.5422 32.0967 68.6584 32.299 68.7402 32.5357C68.8263 32.7725 68.8693 33.0523 68.8693 33.3752C68.8693 33.952 68.7273 34.4104 68.4431 34.7505C68.159 35.0863 67.7113 35.3101 67.1001 35.422C67.5306 35.4522 67.8986 35.5189 68.2042 35.6222C68.5142 35.7212 68.766 35.859 68.9597 36.0355C69.1534 36.2076 69.2955 36.4207 69.3859 36.6747C69.4763 36.9244 69.5215 37.2171 69.5215 37.5529ZM66.5319 33.7561C66.5319 33.6442 66.5146 33.5387 66.4802 33.4397C66.4458 33.3364 66.3834 33.246 66.293 33.1685C66.2026 33.0911 66.0799 33.0286 65.9249 32.9813C65.7699 32.9339 65.5719 32.9103 65.3309 32.9103H61.7989V34.5762H65.3309C65.5719 34.5762 65.7699 34.5546 65.9249 34.5116C66.0799 34.4685 66.2026 34.4104 66.293 34.3373C66.3834 34.2641 66.4458 34.178 66.4802 34.079C66.5146 33.9757 66.5319 33.868 66.5319 33.7561ZM67.0872 37.2752C67.0872 37.0729 67.0527 36.9115 66.9839 36.7909C66.915 36.6661 66.8074 36.5714 66.661 36.5068C66.5146 36.4379 66.3252 36.3927 66.0928 36.3712C65.8603 36.3497 65.5827 36.3389 65.2598 36.3389H61.7989V38.2179H65.2598C65.5827 38.2179 65.8603 38.2072 66.0928 38.1856C66.3252 38.1641 66.5146 38.1189 66.661 38.05C66.8074 37.9812 66.915 37.8865 66.9839 37.7659C67.0527 37.6411 67.0872 37.4775 67.0872 37.2752ZM78.8389 38.3212H73.8929L73.0599 40.0001H70.3867L75.0293 31.1281H77.7025L82.3451 40.0001H79.6719L78.8389 38.3212ZM74.7516 36.5908H77.9931L76.3788 33.3235L74.7516 36.5908ZM89.3832 30.9021C90.2528 30.9021 91.0599 30.9775 91.8046 31.1281C92.5536 31.2745 93.2402 31.4639 93.8644 31.6963V33.8659C93.619 33.7281 93.3414 33.5947 93.0315 33.4656C92.7258 33.3364 92.3922 33.2223 92.0306 33.1233C91.669 33.0243 91.2816 32.9447 90.8684 32.8844C90.4551 32.8242 90.0203 32.794 89.564 32.794C88.9958 32.794 88.5008 32.8349 88.0789 32.9167C87.6571 32.9985 87.2955 33.1083 86.9942 33.246C86.6928 33.3838 86.4453 33.5452 86.2516 33.7303C86.0579 33.9111 85.9051 34.1048 85.7931 34.3114C85.6812 34.5181 85.6037 34.729 85.5607 34.9442C85.5176 35.1594 85.4961 35.3682 85.4961 35.5705C85.4961 35.747 85.5133 35.9386 85.5478 36.1452C85.5865 36.3518 85.6554 36.5585 85.7544 36.7651C85.8577 36.9717 85.9998 37.1697 86.1806 37.3591C86.3614 37.5485 86.596 37.7164 86.8844 37.8628C87.1771 38.0091 87.5279 38.1275 87.9369 38.2179C88.3458 38.304 88.8322 38.3471 89.3962 38.3471C89.6803 38.3471 89.9278 38.3385 90.1387 38.3212C90.3496 38.304 90.5412 38.2803 90.7134 38.2502C90.8899 38.2201 91.0535 38.1835 91.2041 38.1404C91.3591 38.0974 91.5184 38.0522 91.6819 38.0048V36.933H88.9958V34.9894H94.0775V39.5222C93.759 39.6299 93.4017 39.7289 93.0056 39.8193C92.6139 39.9054 92.2071 39.9785 91.7853 40.0388C91.3677 40.1034 90.948 40.1529 90.5261 40.1873C90.1043 40.2217 89.7061 40.239 89.3316 40.239C88.7505 40.239 88.193 40.2002 87.6592 40.1227C87.1254 40.0453 86.6261 39.9269 86.1612 39.7676C85.7006 39.604 85.2787 39.3974 84.8956 39.1477C84.5168 38.8981 84.1918 38.601 83.9206 38.2567C83.6537 37.9123 83.4449 37.5184 83.2943 37.075C83.1479 36.6273 83.0747 36.1258 83.0747 35.5705C83.0747 35.0195 83.1522 34.5202 83.3072 34.0725C83.4622 33.6248 83.6774 33.2288 83.9529 32.8844C84.2327 32.5401 84.5663 32.243 84.9537 31.9934C85.3455 31.7437 85.7738 31.5392 86.2387 31.3799C86.7079 31.2164 87.2072 31.0958 87.7367 31.0184C88.2705 30.9409 88.8193 30.9021 89.3832 30.9021Z" fill="white"/>
<g filter="url(#filter0_di_18_3099)">
<path d="M20.6436 41.0001L24.5725 53.0923L37.287 53.0923L27.0008 60.5657L30.9298 72.6579L20.6436 65.1845L10.3573 72.6579L14.2863 60.5657L4.00006 53.0923L16.7146 53.0923L20.6436 41.0001Z" fill="white"/>
<path d="M19.929 62.0001V54.369L17.3691 55.1668V53.259L19.929 52.4682H22.4889V62.0001H19.929Z" fill="black"/>
</g>
<defs>
<filter id="filter0_di_18_3099" x="-0.856445" y="41.0001" width="43" height="43" filterUnits="userSpaceOnUse" color-interpolation-filters="sRGB">
<feFlood flood-opacity="0" result="BackgroundImageFix"/>
<feColorMatrix in="SourceAlpha" type="matrix" values="0 0 0 0 0 0 0 0 0 0 0 0 0 0 0 0 0 0 127 0" result="hardAlpha"/>
<feOffset dy="4"/>
<feGaussianBlur stdDeviation="2"/>
<feComposite in2="hardAlpha" operator="out"/>
<feColorMatrix type="matrix" values="0 0 0 0 0 0 0 0 0 0 0 0 0 0 0 0 0 0 0.25 0"/>
<feBlend mode="normal" in2="BackgroundImageFix" result="effect1_dropShadow_18_3099"/>
<feBlend mode="normal" in="SourceGraphic" in2="effect1_dropShadow_18_3099" result="shape"/>
<feColorMatrix in="SourceAlpha" type="matrix" values="0 0 0 0 0 0 0 0 0 0 0 0 0 0 0 0 0 0 127 0" result="hardAlpha"/>
<feOffset dy="4"/>
<feGaussianBlur stdDeviation="2"/>
<feComposite in2="hardAlpha" operator="arithmetic" k2="-1" k3="1"/>
<feColorMatrix type="matrix" values="0 0 0 0 0 0 0 0 0 0 0 0 0 0 0 0 0 0 0.25 0"/>
<feBlend mode="normal" in2="shape" result="effect2_innerShadow_18_3099"/>
</filter>
</defs>
</svg>
