<svg width="43" height="42" viewBox="0 0 43 42" fill="none" xmlns="http://www.w3.org/2000/svg">
<g clip-path="url(#clip0_70_7)">
<path d="M27.5154 19.6832L27.0931 22.8492L36.1623 25.8263L38.9849 37.9964L34.4727 38.0352L32.8925 29.4474L27.8337 27.5642L29.9159 32.0615L27.302 42L22.4868 41.4481L25.0956 32.7828C24.7577 30.861 23.2371 28.271 21.622 26.3735C21.4431 29.4378 21.4232 32.1391 21.4232 35.4212L10.431 41.9613L9.02961 37.7789L16.8465 33.5962C16.9607 30.9918 17.0154 28.8086 16.9409 25.7587L12.8064 33.756L0 34.9419L0.521683 30.6578L9.59584 30.1106L13.7155 22.3361C14.2323 21.3631 14.297 19.1895 14.5107 17.8485L10.7289 18.4391L8.32384 24.7565L5.16331 22.6264L7.75231 15.1617L15.8624 13.6126C13.1591 12.3443 11.8074 11.8748 9.4519 11.0324L4.15449 15.4618L2.45006 12.1506L8.36854 6.78204L16.3096 9.42029C17.378 9.77365 18.6255 9.91402 20.0466 10.0255L21.4727 0.0581535L28.4149 0L29.8263 5.69288C29.0809 5.72196 27.8237 5.79458 27.7193 6.2737L27.3714 7.90988C27.2819 8.33586 26.0396 8.40848 25.5774 8.40848H24.4047C24.1364 8.40848 24.1414 9.15388 24.1662 9.74458L28.8225 9.77365L35.5013 12.5282L40.6348 8.92656L43.0001 12.0587L36.1027 17.3498L30.8948 15.4327L31.9185 18.3421L39.5316 19.9541L38.652 23.7494L29.2101 22.0406C28.6684 21.8808 27.9578 20.477 27.5155 19.683L27.5154 19.6832Z" fill="white"/>
</g>
<defs>
<clipPath id="clip0_70_7">
<rect width="43" height="42" fill="white"/>
</clipPath>
</defs>
</svg>
